name rise30.6535peak61.5555fall82.9339.mot
datacolumns 19
datarows 11
range 4.92831200000000 4.94497300000000
endheader
time	ground_force1_vx	ground_force1_vy	ground_force1_vz	ground_force1_px	ground_force1_py	ground_force1_pz	ground_force2_vx	ground_force2_vy	ground_force2_vz	ground_force2_px	ground_force2_py	ground_force2_pz	ground_torque1_x	ground_torque1_y	ground_torque1_z	ground_torque2_x	ground_torque2_y	ground_torque2_z	
4.92831200000000	-39.79470900000000	802.09138800000005	51.84526900000000	0.11848500000000	0.00000000000000	0.11621100000000	-4.21549700000000	15.44578200000000	4.90739400000000	0.00000000000000	0.00000000000000	0.00000000000000	0.00000000000000	20.12101300000000	0.00000000000000	0.00000000000000	1.56966700000000	0.00000000000000	
4.92998400000000	-40.14956300000000	799.96512399999995	51.70157200000000	0.11780500000000	0.00000000000000	0.11614900000000	-5.28911900000000	20.46860200000000	6.29579000000000	0.00000000000000	0.00000000000000	0.00000000000000	0.00000000000000	20.05861600000000	0.00000000000000	0.00000000000000	2.02757200000000	0.00000000000000	
4.93164600000000	-40.52221300000000	797.78081999999995	51.54581800000000	0.11712300000000	0.00000000000000	0.11608300000000	-6.36712800000000	25.90557400000000	7.73819400000000	0.34541000000000	0.00000000000000	-0.06337300000000	0.00000000000000	19.99836300000000	0.00000000000000	0.00000000000000	4.77691800000000	0.00000000000000	
4.93330600000000	-40.91307900000000	795.53837699999997	51.37797000000000	0.11643900000000	0.00000000000000	0.11601600000000	-7.40707500000000	31.63836600000000	9.18899700000000	0.34826600000000	0.00000000000000	-0.06396100000000	0.00000000000000	19.94036700000000	0.00000000000000	0.00000000000000	5.72188300000000	0.00000000000000	
4.93497900000000	-41.32253300000000	793.23753399999998	51.19800300000000	0.11575400000000	0.00000000000000	0.11594500000000	-8.36790600000000	37.54361900000000	10.60275200000000	0.35084800000000	0.00000000000000	-0.06452700000000	0.00000000000000	19.88473700000000	0.00000000000000	0.00000000000000	6.65681300000000	0.00000000000000	
4.93664400000000	-41.75089300000000	790.87786600000004	51.00589900000000	0.11506600000000	0.00000000000000	0.11587100000000	-9.21295600000000	43.50305300000000	11.93755800000000	0.35318800000000	0.00000000000000	-0.06507500000000	0.00000000000000	19.83157200000000	0.00000000000000	0.00000000000000	7.55503600000000	0.00000000000000	
4.93831200000000	-42.19842000000000	788.45877499999995	50.80164700000000	0.11437500000000	0.00000000000000	0.11579500000000	-9.91236300000000	49.41231700000000	13.15789600000000	0.35531200000000	0.00000000000000	-0.06560700000000	0.00000000000000	19.78096300000000	0.00000000000000	0.00000000000000	8.39346500000000	0.00000000000000	
4.93997800000000	-42.66531700000000	785.97948799999995	50.58524400000000	0.11368200000000	0.00000000000000	0.11571600000000	-10.44465700000000	55.18764800000000	14.23661500000000	0.35724400000000	0.00000000000000	-0.06612400000000	0.00000000000000	19.73299000000000	0.00000000000000	0.00000000000000	9.15395300000000	0.00000000000000	
4.94164700000000	-43.15172500000000	783.43905800000005	50.35669500000000	0.11298500000000	0.00000000000000	0.11563500000000	-10.79745200000000	60.76989900000000	15.15596000000000	0.35900400000000	0.00000000000000	-0.06662800000000	0.00000000000000	19.68772500000000	0.00000000000000	0.00000000000000	9.82404700000000	0.00000000000000	
4.94331400000000	-43.65771800000000	780.83635800000002	50.11600900000000	0.11228500000000	0.00000000000000	0.11555000000000	-10.96729300000000	66.12591700000000	15.90768000000000	0.36061100000000	0.00000000000000	-0.06712000000000	0.00000000000000	19.64523000000000	0.00000000000000	0.00000000000000	10.39716500000000	0.00000000000000	
4.94497300000000	-44.18330500000000	778.17008499999997	49.86320500000000	0.11158200000000	0.00000000000000	0.11546300000000	-10.95879000000000	71.24754900000001	16.49233300000000	0.36208100000000	0.00000000000000	-0.06760100000000	0.00000000000000	19.60555500000000	0.00000000000000	0.00000000000000	10.87225600000000	0.00000000000000	
